<svg xmlns="http://www.w3.org/2000/svg" viewBox="0 0 310 310" style="cursor: pointer;"><style>path { fill: #666d89;}</style><path d="M81.7 165.1h34V305c0 2.8 2.2 5 5 5h57.6c2.8 0 5-2.2 5-5V165.8h39.1c2.5 0 4.7-1.9 5-4.4l5.9-51.5c0.2-1.4-0.3-2.8-1.2-3.9-0.9-1.1-2.3-1.7-3.7-1.7h-45V72c0-9.7 5.2-14.7 15.6-14.7 1.5 0 29.4 0 29.4 0 2.8 0 5-2.2 5-5V5c0-2.8-2.2-5-5-5h-40.5C187.5 0 186.8 0 185.9 0c-7 0-31.5 1.4-50.8 19.2-21.4 19.7-18.4 43.3-17.7 47.4v37.8H81.7c-2.8 0-5 2.2-5 5v50.8C76.7 162.9 78.9 165.1 81.7 165.1z"/></svg>