<svg xmlns="http://www.w3.org/2000/svg" viewBox="0 0 1000 1000" style="cursor: pointer;"><style>path { fill: #666d89; }</style>
<g><g transform="translate(0.000000,405.000000) scale(0.100000,-0.100000)"><path d="M2918.5,3438.6c-185.2-17.4-455.3-76.2-638.2-139.4c-971.5-342-1616.3-1134.9-1616.3-1986.6c0-843,514.1-1592.4,1311.4-1908.2c187.3-74.1,551.1-154.7,697.1-154.7h93.7v-265.8c0-246.1,4.4-278.8,61-396.5c32.7-69.7,58.8-128.5,58.8-132.9c0-2.2-111.1-10.9-244-17.4c-1326.6-65.4-2459.3-938.9-2537.7-1954C34.4-4409.9,862.1-5102.6,2241-5303c555.5-82.8,1213.3-56.6,1692.6,65.4c862.6,220,1496.5,766.8,1723,1481.3c45.7,145.9,50.1,202.6,47.9,544.6c0,420.4-24,557.6-141.6,838.7c-132.9,322.4-368.1,592.5-803.8,928c-396.5,302.8-631.7,566.4-631.7,703.6c2.2,163.4,85,263.6,522.8,627.4c172.1,143.8,396.5,418.2,505.4,618.6c43.6,82.8,106.7,239.6,139.4,346.3c50.1,167.7,58.8,235.3,58.8,479.2c2.2,461.8-108.9,849.5-335.5,1180.7c-34.9,50.1-63.2,95.8-63.2,102.4c0,6.5,61,13.1,137.2,13.1h137.2l335.5,246.1c300.6,217.8,339.8,254.9,357.2,326.7c17.4,67.5,13.1,91.5-24,141.6c-85,115.5-45.7,113.3-1520.5,108.9C3624.3,3447.3,2966.4,3442.9,2918.5,3438.6z M3023,2626.1c925.8-285.4,1359.3-1901.7,675.3-2526.9C3548-40.2,3415.1-83.8,3192.9-70.7c-217.8,13.1-409.5,102.4-603.4,285.4c-365.9,339.8-566.4,786.4-590.3,1304.8c-15.2,296.2,10.9,464,102.4,664.4C2284.6,2589,2620,2750.2,3023,2626.1z M3513.2-2244.7c148.1-30.5,193.9-54.5,435.7-220c501-344.2,664.4-542.4,692.7-834.3c28.3-302.8-63.2-588.1-254.9-792.9c-274.5-294.1-708-431.3-1370.2-433.5c-344.2-2.2-572.9,39.2-812.5,145.9c-481.4,211.3-779.8,638.3-751.5,1071.7c30.5,477.1,525,914.9,1193.7,1056.5C2885.8-2201.1,3286.6-2198.9,3513.2-2244.7z"/><path d="M7512.6,1536.9c-115.5-45.7-117.6-58.8-117.6-886.6v-768.9h-740.6c-991.1,0-947.6,19.6-947.6-424.8c0-444.4-43.6-424.8,947.6-424.8h740.6v-771.1v-773.3l52.3-61c52.3-61,56.6-61,335.4-67.5l283.2-8.7l71.9,65.4l74.1,65.4l6.5,775.5l6.5,773.3l773.3,6.5l775.5,6.5l63.2,71.9c63.2,69.7,63.2,71.9,63.2,342c0,270.1,0,272.3-63.2,342l-63.2,71.9l-775.5,6.5l-773.3,6.5l-6.5,773.3l-6.5,775.5l-71.9,63.2c-69.7,63.2-74.1,63.2-326.7,61C7673.7,1556.5,7536.5,1547.8,7512.6,1536.9z"/></g></g>
</svg>