<svg xmlns="http://www.w3.org/2000/svg" viewBox="0 0 1000 1000" style="cursor: pointer;"><style>path { fill: #666d89;}</style><path d="M232.1,122.2c0,29-10.5,53.7-31.6,74c-21.1,20.3-48.3,30.5-81.7,30.5c-31.9,0-58.1-10.2-78.4-30.5c-20.3-20.3-30.5-45-30.5-74C10,91.7,20.2,66.6,40.5,47c20.3-19.6,47.2-29.4,80.6-29.4S181,27.4,200.6,47C220.2,66.6,230.7,91.7,232.1,122.2L232.1,122.2 M16.5,982.4V309.4h209.1v672.9H16.5L16.5,982.4 M349.7,525c0-62.4-1.5-134.3-4.4-215.6h180.8l10.9,93.6h4.4c43.6-72.6,112.5-108.9,206.9-108.9c72.6,0,131,24.3,175.3,73C967.9,415.8,990,488,990,583.8v398.5H780.9V610c0-97.3-35.6-145.9-106.7-145.9c-50.8,0-86.4,26.1-106.7,78.4c-4.4,8.7-6.5,26.1-6.5,52.3v387.6H349.7L349.7,525L349.7,525"/>
</svg>