<svg xmlns="http://www.w3.org/2000/svg" viewBox="0 0 310 310" style="cursor: pointer;"><metadata>   Svg Vector Icons : http:&#x2F;&#x2F;www.onlinewebfonts.com&#x2F;icon </metadata><svg xmlns="http://www.w3.org/2000/svg" viewBox="0 0 1000 1000"><style>  path { fill: #666d89; }</style><path d="M964.5 107.8c0 0-28.8 13.5-48.8 21 -19.9 7.5-46.7 15.1-46.7 15.1s-105.6-132.8-258.9-54c-153.4 78.8-103.8 256.4-103.8 256.4s-130.9 4.6-285.8-75.7S28 117.7 28 117.7 4 161 14.5 241.3C25 321.6 99 425 99 425l-89-36.9c0 0 4.5 51 39.1 103.5 34.6 52.5 156.4 118.9 156.4 118.9l-115.8 1.5c0 0 10.5 24.7 52.6 66.4 42.1 41.7 159.4 78.8 159.4 78.8s-82.5 59.3-139.9 81.9S14.5 867 14.5 867s134 85.7 339.9 64.9C560.2 911 701.9 812.2 811.5 647.6c109.7-164.6 99.2-378.5 99.2-378.5s12-14.2 41.1-41.6C981 200 990 186.6 990 186.6l-72.8 7.9L964.5 107.8z"/></svg></svg>
